<svg xmlns="http://www.w3.org/2000/svg" width="674" height="458" viewBox="0 0 674 458"><path fill="#493736" d="m313.904 90.818 24.313.057c2.281 8.477 6.227 17.85 9.205 26.192 2.408 6.747 4.789 13.548 7.163 20.308l42.743 118.521c-6.462.331-15.087.117-21.692.051-2.451-6.192-4.014-12.558-6.266-18.755l-28.475-80.724c-3.73-10.661-7.383-22.579-11.446-32.919-.707-2.047-1.751-6.686-4.115-6.896-1.919 2.525-7.154 19.321-8.578 23.218-10.779 29.504-20.295 59.564-30.998 89.106-1.268 3.5-2.497 6.791-3.67 10.33-1.784 5.389-3.46 11.861-5.854 16.922-6.354.337-16.232-.279-21.424.327.851-3.131 2.275-6.724 3.332-9.869 2.877-8.561 6.118-17.016 9.103-25.543a5672 5672 0 0 1 29.384-82.436l11.477-32.759c1.206-3.418 4.134-12.8 5.798-15.13"/><path fill="#493736" d="m585.688 90.2 21.568.028c-2.024 4.826-4.007 10.716-5.872 15.692a1346 1346 0 0 0-14.172 39.066l-26.53 73.451c-3.08 8.337-5.72 17.216-8.932 25.568-1.424 3.701-2.49 7.813-4.344 11.292-7.923.735-15.153.037-23.086.19-3.501-11.908-7.158-21.331-11.43-32.943l-11.219-30.987-17.355-47.925c-2.034-5.611-3.74-11.322-5.921-16.878-2.942-8.539-6.66-16.848-9.329-25.594-1.124-3.683-2.638-6.677-3.36-10.652 3.882-.058 18.13-.423 20.942.474 1.435 1.282 5.131 13.219 6.093 15.937l13.683 39.641a6131 6131 0 0 0 23.563 66.823c1.518 4.226 2.994 8.571 4.516 12.803.352.977.692 1.073 1.475 1.42 1.805-.33 2.629-3.249 3.188-4.864 4.801-13.884 9.737-27.733 14.409-41.663a4397 4397 0 0 1 14.521-41.483c1.929-5.541 15.731-47.524 17.592-49.396"/><path fill="#493736" d="M79.231 90.776c6.582.168 13.585.053 20.197.051-.423 4.314-.19 13.311-.178 17.773q.009 16.728.21 33.455l.279 94.316c17.548.496 34.849.881 52.422.633 5.738-.081 13.243-.331 18.839.257.591 5.05.38 13.49.384 18.91-1.094.44-84.003-.077-91.845-.186-.384-8.426-.215-18.071-.238-26.555l-.121-47.692-.16-58.359c.002-10.491-.196-22.171.211-32.603"/><path fill="#493736" d="M444.623 323.863c11.044-1.155 20.966 6.776 22.271 17.801s-6.494 21.051-17.503 22.504a20.3 20.3 0 0 1-18.868-7.905 20.29 20.29 0 0 1-2.403-20.312 20.3 20.3 0 0 1 16.503-12.088m4.756 35.387c8.415-1.499 14.011-9.548 12.483-17.956s-9.598-13.975-18.003-12.419c-8.364 1.549-13.9 9.57-12.379 17.937 1.52 8.368 9.524 13.93 17.899 12.438"/><path fill="#493736" d="M159.828 324.186c5.622-.193 9.793.024 14.528 3.366a20.84 20.84 0 0 1 8.355 13.298c1.876 11.075-5.003 21.915-16.385 23.6-10.081 1.382-19.103-3.399-22.049-13.877-1.403-4.988-.428-13.584 2.459-17.993 3.278-5.005 7.251-7.165 13.092-8.394m5.875 35.365c8.339-1.44 13.945-9.348 12.539-17.691-1.405-8.343-9.292-13.98-17.642-12.609-8.4 1.378-14.078 9.32-12.665 17.711 1.413 8.392 9.38 14.036 17.768 12.589"/><defs><linearGradient id="a" x1="364.983" x2="399.404" y1="352.607" y2="333.471" gradientUnits="userSpaceOnUse"><stop offset="0" stop-color="#4b3336"/><stop offset="1" stop-color="#443d42"/></linearGradient></defs><path fill="url(#a)" d="M370.3 324.738c9.261.188 19.317-1.774 26.695 4.812 7.889 7.043 7.525 21.438.677 28.924-7.364 7.385-17.638 5.573-27.306 5.552-.533-11.79-.074-27.187-.066-39.288m4.437 34.48c6.912-.395 13.095 1.408 18.637-3.652 6.109-6.417 6.47-16.073.12-22.431-5.029-5.035-12.245-3.275-18.234-3.866-.665 6.973-.557 22.303-.523 29.949"/><path fill="#493736" d="M209.491 324.849c9.792.794 26.152-3.659 27.034 9.935.232 3.572-.932 5.355-3.139 7.977 4.533 5.239 6.867 11.002 2.955 17.406-5.4 5.708-19.264 4.018-26.983 3.994-.485-3.211-.604-37.72.133-39.312m4.271 34.441c5.308.039 14.304 1.235 18.472-2.099 3.215-5.191 1.27-7.875-2.973-11.269-5.142-.002-10.63.09-15.744-.098.052 4.401.027 9.092.245 13.466m-.526-18.052c5.241-.614 13.047.886 16.65-1.592.652-.786 1.353-1.595 1.596-2.619 2.386-10.068-11.988-7.321-18.452-7.573.106 3.515.391 8.37.206 11.784"/><path fill="#493736" d="M263.895 324.93c7.679.415 20.53-2.007 24.649 5.381 4.773 8.559 1.875 13.625-5.359 18.14 2.238 4.631 6.29 11.056 9.051 15.56-2.186.294-5.2 1.201-6.714-.557-2.078-4.355-5.639-9.716-7.275-13.712l-9.716-.035c.149 2.365.573 13.346-.602 14.512-1.379.472-2.691.252-4.174.162q.215-19.725.14-39.451m4.561 19.498c4.648.049 11.804.822 15.314-1.86 1.38-2.061 1.828-2.999 2.441-5.442-2.819-10.051-9.607-7.096-17.863-7.458.174 5.037.155 9.727.108 14.76"/><path fill="#493736" d="M493.586 323.896c11.754.074 27.977-2.736 25.23 16.137-.54 3.711-4.153 5.595-7.091 7.391.999 1.442 7.723 13.563 8.446 15.168l-.337.462c-1.505.586-3.255.526-4.889.575-.516-.857-1.071-2.004-1.544-2.913-1.831-3.889-4.233-8.101-6.3-11.914-3.019-.161-6.406-.062-9.459-.032q.025 7.229-.107 14.456c-1.261.299-3.317.525-4.661.712-.688-8.386.137-29.982-.254-39.47-.012-.289.582-.419.966-.572m3.653 19.84c5.37.101 10.627.51 15.299-2.47 2.364-2.615 2.05-4.282 1.917-7.766-1.505-1.87-2.32-2.989-4.276-4.436-3.407-.082-9.795-.01-12.856-.289a355 355 0 0 0-.084 14.961"/><path fill="#493736" d="M325.919 327.675c.336-.815.601-1.755 1.328-2.262 2.003-1.397 4.417-1.082 5.898.924.077 2.194 12.056 33.175 13.669 37.834l-4.865.234c-3.755-10.037-8.182-24.194-12.544-33.092-2.247 5.867-4.21 11.115-6.177 17.071-1.2 3.631-3.986 12.727-5.616 15.833l-4.938-.057c3.972-11.469 8.554-25.353 13.245-36.485"/><path fill="#493736" d="M325.919 327.675c.336-.815.601-1.755 1.328-2.262 2.003-1.397 4.417-1.082 5.898.924-1.583 2.428-4.997 2.805-7.226 1.338"/></svg>